<svg version="1.1" id="Layer_1" xmlns="http://www.w3.org/2000/svg" xmlns:xlink="http://www.w3.org/1999/xlink" x="0px" y="0px"
	 width="100%" viewBox="0 0 201 157" enable-background="new 0 0 201 157" xml:space="preserve">
<path fill="#020201" opacity="1.000000" stroke="none" 
	d="
M126.000000,158.000000 
	C84.000000,158.000000 42.500004,158.000000 1.000005,158.000000 
	C1.000004,105.666672 1.000004,53.333344 1.000002,1.000013 
	C67.999992,1.000008 134.999985,1.000008 201.999969,1.000004 
	C201.999985,53.333317 201.999985,105.666634 202.000000,157.999969 
	C176.833328,158.000000 151.666672,158.000000 126.000000,158.000000 
M99.768433,44.152260 
	C119.686539,44.152260 139.604645,44.152260 160.479187,44.152260 
	C157.916779,48.825329 155.802963,52.680305 152.879456,58.011902 
	C160.046326,58.011902 166.046219,58.131153 172.030167,57.875999 
	C172.872528,57.840080 173.803070,56.063644 174.409210,54.939896 
	C177.412933,49.371082 180.330307,43.755547 183.260727,38.147396 
	C185.541595,33.782345 187.796951,29.403957 190.442520,24.300653 
	C188.042526,24.300653 186.606934,24.300987 185.171341,24.300606 
	C156.511139,24.292961 127.850937,24.272676 99.190750,24.292557 
	C95.374779,24.295204 91.558952,24.501535 86.889954,24.292473 
	C78.458122,24.292473 70.026291,24.292473 61.075111,24.292473 
	C61.804462,25.817230 62.297379,27.002369 62.916050,28.117754 
	C71.381882,43.380569 79.900887,58.614140 88.284370,73.921959 
	C89.057045,75.332840 89.795128,77.619385 89.185875,78.789268 
	C85.631760,85.613770 81.670662,92.226311 77.611931,99.321381 
	C76.414284,97.276932 75.548607,95.861877 74.742477,94.413673 
	C62.370731,72.188095 50.048183,49.934818 37.553352,27.778692 
	C36.663288,26.200405 34.581062,24.393341 32.952938,24.291264 
	C26.541821,23.889322 20.090630,24.126545 12.849600,24.126545 
	C34.900471,63.714710 56.588299,102.651093 78.667374,142.289902 
	C86.865616,127.601707 94.666634,113.625206 102.842178,98.977699 
	C107.526398,107.149818 111.792679,114.592796 116.149010,122.714767 
	C119.994102,129.037216 123.839195,135.359665 128.109192,142.380783 
	C141.524292,116.846489 154.521942,92.106735 167.828430,66.779152 
	C156.103577,66.779152 145.286316,66.735527 134.470535,66.842422 
	C133.309586,66.853897 131.646622,67.414665 131.092499,68.280945 
	C129.072403,71.439041 127.423973,74.834877 125.133408,79.069221 
	C130.885635,79.069221 135.540359,79.069221 141.029205,79.069221 
	C137.334457,85.693832 134.129822,91.492691 130.849503,97.248413 
	C130.475296,97.905014 129.676910,98.319862 128.795761,98.222412 
	C125.618408,92.622696 122.385979,87.053375 119.274971,81.417046 
	C112.419815,68.997337 105.625923,56.543812 99.768433,44.152260 
z"/>
<path fill="#F1F0E9" opacity="1.000000" stroke="none" 
	d="
M116.058960,122.035782 
	C111.792679,114.592796 107.526398,107.149818 102.842178,98.977699 
	C94.666634,113.625206 86.865616,127.601707 78.667374,142.289902 
	C56.588299,102.651093 34.900471,63.714710 12.849600,24.126545 
	C20.090630,24.126545 26.541821,23.889322 32.952938,24.291264 
	C34.581062,24.393341 36.663288,26.200405 37.553352,27.778692 
	C50.048183,49.934818 62.370731,72.188095 74.742477,94.413673 
	C75.548607,95.861877 76.414284,97.276932 77.611931,99.321381 
	C81.670662,92.226311 85.631760,85.613770 89.185875,78.789268 
	C89.795128,77.619385 89.057045,75.332840 88.284370,73.921959 
	C79.900887,58.614140 71.381882,43.380569 62.916050,28.117754 
	C62.297379,27.002369 61.804462,25.817230 61.075111,24.292473 
	C70.026291,24.292473 78.458122,24.292473 87.330109,24.790272 
	C91.449181,31.560078 95.128105,37.832081 98.807022,44.104088 
	C105.625923,56.543812 112.419815,68.997337 119.274971,81.417046 
	C122.385979,87.053375 125.618408,92.622696 128.870483,98.907089 
	C127.957848,101.825562 127.184967,104.187599 125.941139,106.268074 
	C122.758888,111.590820 119.367004,116.788239 116.058960,122.035782 
z"/>
<path fill="#AD9058" opacity="1.000000" stroke="none" 
	d="
M99.287735,44.128174 
	C95.128105,37.832081 91.449181,31.560078 87.756653,24.950806 
	C91.558952,24.501535 95.374779,24.295204 99.190750,24.292557 
	C127.850937,24.272676 156.511139,24.292961 185.171341,24.300606 
	C186.606934,24.300987 188.042526,24.300653 190.442520,24.300653 
	C187.796951,29.403957 185.541595,33.782345 183.260727,38.147396 
	C180.330307,43.755547 177.412933,49.371082 174.409210,54.939896 
	C173.803070,56.063644 172.872528,57.840080 172.030167,57.875999 
	C166.046219,58.131153 160.046326,58.011902 152.879456,58.011902 
	C155.802963,52.680305 157.916779,48.825329 160.479187,44.152260 
	C139.604645,44.152260 119.686539,44.152260 99.287735,44.128174 
z"/>
<path fill="#AE9159" opacity="1.000000" stroke="none" 
	d="
M116.103989,122.375275 
	C119.367004,116.788239 122.758888,111.590820 125.941139,106.268074 
	C127.184967,104.187599 127.957848,101.825562 129.010208,99.219292 
	C129.676910,98.319862 130.475296,97.905014 130.849503,97.248413 
	C134.129822,91.492691 137.334457,85.693832 141.029205,79.069221 
	C135.540359,79.069221 130.885635,79.069221 125.133408,79.069221 
	C127.423973,74.834877 129.072403,71.439041 131.092499,68.280945 
	C131.646622,67.414665 133.309586,66.853897 134.470535,66.842422 
	C145.286316,66.735527 156.103577,66.779152 167.828430,66.779152 
	C154.521942,92.106735 141.524292,116.846489 128.109192,142.380783 
	C123.839195,135.359665 119.994102,129.037216 116.103989,122.375275 
z"/>
</svg>